<svg width="60" height="60" viewBox="0 0 60 60" fill="none" xmlns="http://www.w3.org/2000/svg">
<mask id="mask0_44_74" style="mask-type:luminance" maskUnits="userSpaceOnUse" x="17" y="11" width="26" height="38">
<path d="M17.1191 11.0635H42.8177V48.75H17.1191V11.0635Z" fill="white"/>
</mask>
<g mask="url(#mask0_44_74)">
<path d="M35.2524 12.7463H24.6893C23.0713 12.7463 21.5991 13.4128 20.5301 14.4778C19.4659 15.5478 18.8004 17.0215 18.8004 18.6411V41.17C18.8004 42.7896 19.4659 44.2584 20.5301 45.3333C21.5991 46.3986 23.0713 47.0599 24.6893 47.0599H35.2524C36.8704 47.0599 38.3426 46.3986 39.4067 45.3333C40.4755 44.2584 41.1414 42.7896 41.1414 41.17V18.6411C41.1414 17.0215 40.4755 15.5478 39.4067 14.4778C38.3426 13.4128 36.8704 12.7463 35.2524 12.7463ZM24.6893 11.0635H35.2524C37.3318 11.0635 39.227 11.9147 40.5972 13.291C41.972 14.6628 42.8226 16.5546 42.8226 18.6411V41.17C42.8226 43.2517 41.972 45.1486 40.5972 46.5201C39.227 47.8967 37.3318 48.7479 35.2524 48.7479H24.6893C22.6047 48.7479 20.7147 47.8967 19.3445 46.5201C17.9694 45.1486 17.1191 43.2517 17.1191 41.17V18.6411C17.1191 16.5546 17.9694 14.6628 19.3445 13.291C20.7147 11.9147 22.6047 11.0635 24.6893 11.0635Z" fill="black" fill-opacity="0.6"/>
</g>
<path d="M30.8116 18.7238V25.9708H29.1304V18.7238H30.8116Z" fill="black" fill-opacity="0.6"/>
</svg>
